<svg data-v-0dd9719b="" version="1.0" xmlns="http://www.w3.org/2000/svg" xmlns:xlink="http://www.w3.org/1999/xlink" width="100%" height="100%" viewBox="0 0 340.000000 250.000000" preserveAspectRatio="xMidYMid meet" color-interpolation-filters="sRGB" style="margin: auto;"> <rect data-v-0dd9719b="" x="0" y="0" width="100%" height="100%" fill="#fff" fill-opacity="1" class="background"></rect> <rect data-v-0dd9719b="" x="0" y="0" width="100%" height="100%" fill="url(#watermark)" fill-opacity="1" class="watermarklayer"></rect> <g data-v-0dd9719b="" fill="#333" class="icon-text-wrapper icon-svg-group iconsvg" transform="translate(48.92749786376953,95.01139640808105)"><g class="iconsvg-imagesvg" transform="translate(0,0)"><g><rect fill="#333" fill-opacity="0" stroke-width="2" x="0" y="0" width="60" height="59.977208660708925" class="image-rect"></rect> <svg x="0" y="0" width="60" height="59.977208660708925" filtersec="colorsb6858764743" class="image-svg-svg primary" style="overflow: visible;"><svg xmlns="http://www.w3.org/2000/svg" viewBox="-0.024392234161496162 -0.00439166696742177 206.4888916015625 206.41061401367188"><title>资源 7</title><g fill-rule="evenodd"><path d="M176.24 176.18a102.91 102.91 0 0 1-76.44 30.16c-8.75-.29-10.94-10.72-6.79-17 17.92-27.07 75.72-28.09 101.23-60a56.23 56.23 0 0 0 10.57-21.88c.56-2.21 1.26-4.67 1.63-6.42a102.92 102.92 0 0 1-30.2 75.1z" fill="#03b2de" opacity=".48"></path><path d="M176.18 176.24a102.92 102.92 0 0 0 30.16-76.44c-.29-8.76-10.73-10.94-17-6.79C168.21 107 163 145.3 146.5 173.56c-9.44 16.21-25.92 31.19-45.38 32.82a102.78 102.78 0 0 0 75.06-30.14z" fill="#8e03ff" opacity=".48"></path><path d="M30.22 30.28A102.94 102.94 0 0 1 106.66.12c8.77.29 10.94 10.73 6.79 17-17.91 27.07-75.72 28.09-101.23 60A56.23 56.23 0 0 0 1.65 99c-.56 2.17-1.25 4.63-1.65 6.38a102.93 102.93 0 0 1 30.2-75.1z" fill="#00deb9" opacity=".48"></path><path d="M30.28 30.22A102.94 102.94 0 0 0 .12 106.66c.29 8.77 10.73 10.94 17 6.79 27.07-17.91 28.09-75.72 60-101.23A56.23 56.23 0 0 1 99 1.65c2.21-.56 4.67-1.25 6.42-1.63a102.93 102.93 0 0 0-75.1 30.2z" fill="#1d88e1" opacity=".48"></path><path d="M44 187.8c-32.11-55.4 181.83-82.46 145-142a103.71 103.71 0 0 0-26.5-27.07c25.84 44.36-100 69.18-138.89 106.54C12.3 136.12 10.9 151.63 20 164.34a103.82 103.82 0 0 0 24 23.46z" fill="#8e03ff" opacity=".48"></path><path d="M187.75 44c-51.41-29.78-77.2 148.08-127.43 150-4.47.18-9.6-2-14.56-5a103.71 103.71 0 0 1-27.07-26.5C71.5 193.28 96.63 9 148.17 12.54c4.69.32 10.6 3.57 16.11 7.51a104.32 104.32 0 0 1 23.47 24z" fill="#1d88e1" opacity=".48"></path></g></svg></svg> <!----></g></g> <g transform="translate(67,2.138141632080078)"><g data-gra="path-name" fill-rule="" class="tp-name iconsvg-namesvg" transform="translate(0,0)"><g transform="scale(1)"><g><path d="M12.38 2.25Q10.62 2.52 10.26 1.71 9.9 0.9 10.66-0.49L10.66-0.49Q11.38-1.75 11.38-2.52L11.38-2.52 11.38-16.83 4.46-16.83Q2.83-16.83 2.83-18.5L2.83-18.5Q2.83-20.11 4.46-20.11L4.46-20.11 11.38-20.11 11.38-35.64Q11.38-37.35 13.09-37.35L13.09-37.35Q14.8-37.35 14.8-35.64L14.8-35.64 14.8-20.11 40.5-20.11Q42.12-20.11 42.12-18.5L42.12-18.5Q42.12-16.83 40.5-16.83L40.5-16.83 25.11-16.83Q27.36-11.65 31.23-7.83L31.23-7.83Q35.14-3.96 40.41-1.84L40.41-1.84Q43.11-0.99 41.71 0.9L41.71 0.9Q40.81 2.11 39.1 1.48L39.1 1.48Q26.91-3.38 21.73-16.83L21.73-16.83 14.8-16.83 14.8-1.8 23.67-4Q25.43-4.46 25.61-2.75L25.61-2.75Q25.65-2.07 24.43-1.3L24.43-1.3Q23.45-0.67 22.45-0.4L22.45-0.4Q21.06 0 18.72 0.63L18.72 0.63Q13.63 2.07 12.38 2.25L12.38 2.25ZM21.96-23.18Q20.52-22.45 19.44-23.54L19.44-23.54Q18.59-24.39 18.77-25 18.95-25.61 20.11-26.14L20.11-26.14Q28.3-30.02 33.48-35.59L33.48-35.59Q34.38-36.67 35.73-36.05L35.73-36.05Q37.66-35.19 36.36-33.66L36.36-33.66Q33.39-30.55 29.74-27.99L29.74-27.99Q26.05-25.29 21.96-23.18L21.96-23.18ZM63.45 3.1Q61.61 3.55 60.88 2.29L60.88 2.29Q59.8 0.49 62.73-0.18L62.73-0.18Q69.93-2.02 74.43-5.78 78.93-9.54 81.18-15.57L81.18-15.57Q81.81-17.23 83.32-16.79 84.82-16.34 84.33-14.63L84.33-14.63Q81.81-7.65 76.81-3.42L76.81-3.42Q71.73 0.9 63.45 3.1L63.45 3.1ZM52.2 1.3Q51.34 2.79 49.86 1.67L49.86 1.67Q48.51 0.63 49.32-0.58L49.32-0.58Q51.08-3.51 52.42-5.98L52.42-5.98Q54.41-9.58 55.62-12.11L55.62-12.11Q56.43-13.77 57.87-12.51L57.87-12.51Q58.86-11.65 58.37-10.48L58.37-10.48Q55.75-5.04 52.2 1.3L52.2 1.3ZM68.81-10.21L68.81-10.21Q66.69-10.21 66.28-11.52L66.28-11.52Q65.92-12.51 66.64-13L66.64-13Q67.28-13.46 68.49-13.41L68.49-13.41Q70.56-13.41 70.92-13.46L70.92-13.46Q71.82-13.46 71.82-14.26L71.82-14.26 71.82-35.91Q71.82-37.53 73.48-37.53L73.48-37.53Q75.11-37.53 75.11-35.91L75.11-35.91 75.11-14.22Q75.11-12.78 74.72-11.99 74.34-11.21 73.39-10.8L73.39-10.8Q72.13-10.3 68.81-10.21ZM62.23-17.28Q61.34-15.97 59.98-16.83L59.98-16.83Q59.17-17.32 59.06-17.82 58.95-18.31 59.49-19.04L59.49-19.04Q62.1-23.04 64.03-28.8L64.03-28.8Q64.48-30.42 66.02-30.06L66.02-30.06Q67.68-29.74 67.19-28.08L67.19-28.08Q66.15-24.97 64.91-22.21 63.67-19.44 62.23-17.28L62.23-17.28ZM86.81-18.13Q85.14-17.32 84.64-18.9L84.64-18.9Q84.02-20.7 82.75-23.36L82.75-23.36Q81.67-25.65 80.06-28.26L80.06-28.26Q79.16-29.65 80.73-30.33L80.73-30.33Q81.94-30.87 82.71-29.74L82.71-29.74Q86.04-24.66 87.75-19.93L87.75-19.93Q87.97-19.26 87.75-18.86L87.75-18.86Q87.53-18.5 86.81-18.13L86.81-18.13ZM56.3-19.44Q55.3-17.91 54-18.9L54-18.9Q52.83-19.75 51.62-20.43L51.62-20.43Q50.72-20.97 48.73-22.05L48.73-22.05Q48.65-22.09 48.6-22.14L48.6-22.14Q47.07-22.81 48.1-24.21L48.1-24.21Q48.87-25.24 49.99-24.79L49.99-24.79Q53.37-23.31 56.12-21.46L56.12-21.46Q56.7-21.02 56.7-20.52L56.7-20.52Q56.74-20.11 56.3-19.44L56.3-19.44ZM58.55-31.14Q57.47-29.7 56.25-30.73L56.25-30.73Q55.13-31.63 53.91-32.4L53.91-32.4Q52.02-33.57 50.94-34.11L50.94-34.11Q49.55-34.88 50.53-36.23L50.53-36.23Q51.3-37.26 52.42-36.77L52.42-36.77Q56.12-34.96 58.45-33.21L58.45-33.21Q59.45-32.31 58.55-31.14L58.55-31.14ZM131.81 2.43Q131.13 3.42 129.6 3.1L129.6 3.1Q117.67 0.36 112.77-8.46L112.77-8.46 107.5-8.46 107.5-0.9Q112.09-1.48 116.55-1.93L116.55-1.93Q117.94-2.07 118.03-0.63L118.03-0.63Q118.13 0.67 116.73 0.81L116.73 0.81Q113.63 1.17 107.55 1.89L107.55 1.89Q103.14 2.38 101.25 2.61L101.25 2.61Q100.58 2.65 100.28 2.38 99.99 2.11 99.9 1.35L99.9 1.35Q99.72-0.09 101.07-0.22L101.07-0.22Q101.88-0.32 103.64-0.49L103.64-0.49Q104.17-0.54 104.44-0.58L104.44-0.58 104.44-8.46 98.95-8.46Q98.14-2.25 95.58 1.8L95.58 1.8Q94.55 3.24 93.28 2.34L93.28 2.34Q91.98 1.4 93.06-0.27L93.06-0.27Q96.21-5.49 96.21-14.54L96.21-14.54 96.21-18Q96.21-19.17 96.93-19.89 97.65-20.61 98.82-20.61L98.82-20.61 130.19-20.61Q131.44-20.61 131.44-19.35L131.44-19.35Q131.44-18.04 130.19-18.04L130.19-18.04 100.31-18.04Q99.36-18.04 99.36-17.1L99.36-17.1 99.36-14.49Q99.36-12.87 99.22-11.03L99.22-11.03 130.91-11.03Q132.16-11.03 132.16-9.76L132.16-9.76Q132.16-8.46 130.91-8.46L130.91-8.46 115.88-8.46Q117.58-6.08 120.11-4.23L120.11-4.23Q123.66-5.8 126.85-7.69L126.85-7.69Q127.62-8.1 128.38-7.51L128.38-7.51Q129.74-6.52 128.43-5.71L128.43-5.71Q126.63-4.63 122.49-2.83L122.49-2.83 122.4-2.79Q125.95-0.81 130.55 0.22L130.55 0.22Q132.97 0.72 131.81 2.43L131.81 2.43ZM126.72-13.46L103-13.46Q101.88-13.46 101.88-14.58 101.88-15.71 103-15.71L103-15.71 126.72-15.71Q127.84-15.71 127.84-14.58 127.84-13.46 126.72-13.46L126.72-13.46ZM125.1-23.13L100.31-23.13Q99.14-23.13 98.41-23.85 97.69-24.57 97.69-25.74L97.69-25.74 97.69-33.21Q97.69-34.38 98.41-35.1 99.14-35.82 100.31-35.82L100.31-35.82 125.1-35.82Q126.27-35.82 126.99-35.1 127.71-34.38 127.71-33.21L127.71-33.21 127.71-25.74Q127.71-24.57 126.99-23.85 126.27-23.13 125.1-23.13L125.1-23.13ZM101.79-25.56L101.79-25.56 123.48-25.56Q124.42-25.56 124.42-26.5L124.42-26.5 124.42-28.35 100.84-28.35 100.84-26.5Q100.84-25.56 101.79-25.56ZM100.84-32.49L100.84-30.64 124.42-30.64 124.42-32.49Q124.42-33.44 123.48-33.44L123.48-33.44 101.79-33.44Q100.84-33.44 100.84-32.49L100.84-32.49ZM163.8 2.34Q162.76 3.24 161.82 2.38L161.82 2.38Q160.6 1.3 161.91 0.22L161.91 0.22Q165.19-2.7 167.63-6.52L167.63-6.52Q165.51-14.35 164.66-27.04L164.66-27.04 156.15-27.04Q155.2-27.04 155.2-26.1L155.2-26.1 155.2-20.84 162.13-20.84Q163.35-20.84 163.35-19.62L163.35-19.62 163.35-19.48Q163.13-10.84 162.9-7.96L162.9-7.96Q162.63-4.59 162-3.73L162-3.73Q161.24-2.65 159.75-2.43L159.75-2.43Q158.58-2.34 157.37-2.38L157.37-2.38Q155.79-2.48 155.52-3.6L155.52-3.6Q155.12-5.26 157.45-5.13L157.45-5.13Q157.91-5.13 158.35-5.13L158.35-5.13Q159.16-5.13 159.48-5.67L159.48-5.67Q160.11-6.61 160.34-16.11L160.34-16.11Q160.38-17.23 160.16-17.64L160.16-17.64Q159.93-18 159.44-18L159.44-18 155.2-17.95Q155.2-5.49 152.15 1.75L152.15 1.75Q151.65 2.75 151.16 2.92L151.16 2.92Q150.57 3.1 149.81 2.43L149.81 2.43Q149.18 1.89 149.09 1.35 149 0.81 149.35 0L149.35 0Q150.25-2.07 150.84-4.59L150.84-4.59Q146.03-0.63 144.81 0.45L144.81 0.45Q143.28 1.71 142.83 2.34L142.83 2.34Q142.78 2.38 142.78 2.56L142.78 2.56 142.69 2.38Q142.47 2.02 141.88 1.21L141.88 1.21 141.79 1.13Q141.44 0.72 141.41 0.29 141.39-0.14 141.66-0.36L141.66-0.36Q143.15-2.11 143.15-4.23L143.15-4.23 143.15-19.44Q143.15-20.38 142.2-20.38L142.2-20.38 138.82-20.38Q137.21-20.38 137.21-22 137.21-23.63 138.82-23.63L138.82-23.63 143.59-23.63Q144.76-23.63 145.49-22.9 146.21-22.18 146.21-21.02L146.21-21.02 146.21-4.68 148.14-6.21Q148.91-6.84 149.6-6.66 150.3-6.48 150.66-5.49L150.66-5.49Q150.84-5.13 150.88-5L150.88-5Q151.97-10.08 151.97-18L151.97-18 151.97-27.45Q151.97-28.62 152.69-29.34 153.41-30.06 154.57-30.06L154.57-30.06 164.47-30.06Q164.38-31.95 164.29-35.91L164.29-35.91Q164.25-37.53 165.82-37.53L165.82-37.53Q167.4-37.53 167.4-35.91L167.4-35.91Q167.4-32.98 167.53-30.06L167.53-30.06 176.31-30.06Q177.8-30.06 177.8-28.57L177.8-28.57Q177.8-27.04 176.31-27.04L176.31-27.04 167.72-27.04Q168.34-17.23 169.83-10.35L169.83-10.35Q172.31-15.34 173.61-21.06L173.61-21.06Q173.97-22.9 175.63-22.32L175.63-22.32Q177.03-21.78 176.58-20.25L176.58-20.25Q174.6-12.38 170.82-6.17L170.82-6.17Q172.66-0.09 174.42-0.09L174.42-0.09Q175.23-0.09 175.55-3.19L175.55-3.19Q175.63-4.54 176.04-5.35L176.04-5.35Q176.53-6.34 177.34-5.8L177.34-5.8Q177.75-5.49 177.93-4.59L177.93-4.59Q178.02-3.82 177.93-3.1L177.93-3.1Q177.53 0.36 176.69 1.69 175.86 3.01 174.06 3.01L174.06 3.01Q171 3.01 168.7-3.06L168.7-3.06Q166.54-0.04 163.8 2.34L163.8 2.34ZM147.01-27.52Q146.47-27.49 145.94-28.21L145.94-28.21Q144.68-29.65 143.73-30.6L143.73-30.6Q142.25-32.09 140.76-33.44L140.76-33.44Q139.68-34.42 140.81-35.55L140.81-35.55Q141.84-36.54 142.88-35.64L142.88-35.64Q146.12-32.89 148.46-30.29L148.46-30.29Q148.95-29.74 148.86-29.25L148.86-29.25Q148.77-28.84 148.23-28.26L148.23-28.26Q147.56-27.54 147.01-27.52ZM175-31.59Q173.84-30.91 173.12-31.95L173.12-31.95Q172.94-32.22 172.44-32.8L172.44-32.8Q172.08-33.16 171.94-33.34L171.94-33.34Q171.85-33.48 171.63-33.7L171.63-33.7Q170.91-34.47 170.55-34.83L170.55-34.83Q169.47-35.91 170.82-36.63L170.82-36.63Q171.72-37.13 172.44-36.45L172.44-36.45Q174.24-34.74 175.45-33.25L175.45-33.25Q175.86-32.71 175.75-32.35 175.63-31.99 175-31.59L175-31.59Z" transform="translate(-2.8299999237060547, 37.529998779296875)"></path></g> <!----> <!----> <!----> <!----> <!----> <!----> <!----></g></g> <g data-gra="path-slogan" fill-rule="" class="tp-slogan iconsvg-slogansvg" fill="#333" transform="translate(5,46.74842071533203)"><rect x="0" height="1" y="3.9750003814697266" width="6.2375030517578125"></rect> <rect height="1" y="3.9750003814697266" width="6.2375030517578125" x="158.90750122070312"></rect> <g transform="translate(9.237503051757812,0)"><g transform="scale(1)"><path d="M8.06-6.05L8.06-6.05L6.94-6.05Q6.52-7.78 4.55-7.83L4.55-7.83Q1.83-7.69 1.73-4.36L1.73-4.36Q1.73-0.80 4.59-0.80L4.59-0.80Q6.56-0.84 7.03-3.19L7.03-3.19L8.16-3.19Q7.64 0.05 4.36 0.14L4.36 0.14Q0.61 0 0.52-4.31L0.52-4.31Q0.70-8.63 4.55-8.81L4.55-8.81Q7.59-8.72 8.06-6.05ZM10.69-5.06L15.19-5.06L15.19-8.58L16.36-8.58L16.36 0L15.19 0L15.19-3.98L10.69-3.98L10.69 0L9.52 0L9.52-8.58L10.69-8.58L10.69-5.06ZM23.81 0L22.97-2.48L19.50-2.48L18.61 0L17.44 0L20.67-8.58L21.98-8.58L25.08 0L23.81 0ZM21.23-7.31L19.88-3.52L22.55-3.52L21.28-7.31L21.23-7.31ZM27.52-8.58L31.83-1.64L31.83-8.58L32.95-8.58L32.95 0L31.64 0L27.28-6.94L27.23-6.94L27.23 0L26.11 0L26.11-8.58L27.52-8.58ZM41.16-3.61L38.53-3.61L38.53-4.59L42.28-4.59L42.28 0L41.53 0L41.25-1.08Q40.27 0.09 38.44 0.14L38.44 0.14Q36.70 0.14 35.77-0.75L35.77-0.75Q34.36-2.06 34.41-4.36L34.41-4.36Q34.73-8.63 38.48-8.81L38.48-8.81Q41.67-8.63 42.14-6L42.14-6L41.02-6Q40.55-7.78 38.44-7.83L38.44-7.83Q35.77-7.64 35.63-4.31L35.63-4.31Q35.63-0.75 38.48-0.75L38.48-0.75Q39.52-0.75 40.27-1.31L40.27-1.31Q41.20-2.06 41.16-3.61L41.16-3.61ZM50.34-6.09L50.34-6.09L49.27-6.09Q49.17-7.73 47.11-7.83L47.11-7.83Q45.19-7.78 45.19-6.33L45.19-6.33Q45.19-5.39 46.22-5.25L46.22-5.25L48.66-4.69Q50.58-4.22 50.58-2.34L50.58-2.34Q50.53 0.05 47.20 0.14L47.20 0.14Q45.38 0.14 44.63-0.61L44.63-0.61Q43.69-1.31 43.73-2.77L43.73-2.77L44.86-2.77Q44.91-0.80 47.20-0.75L47.20-0.75Q49.45-0.80 49.50-2.20L49.50-2.20Q49.69-3.38 47.63-3.75L47.63-3.75L45.84-4.13Q44.02-4.64 44.02-6.19L44.02-6.19Q44.16-8.72 47.02-8.81L47.02-8.81Q50.25-8.81 50.34-6.09ZM53.20-5.06L57.70-5.06L57.70-8.58L58.88-8.58L58.88 0L57.70 0L57.70-3.98L53.20-3.98L53.20 0L52.03 0L52.03-8.58L53.20-8.58L53.20-5.06ZM66.33 0L65.48-2.48L62.02-2.48L61.13 0L59.95 0L63.19-8.58L64.50-8.58L67.59 0L66.33 0ZM63.75-7.31L62.39-3.52L65.06-3.52L63.80-7.31L63.75-7.31ZM79.13-6.05L79.13-6.05L78-6.05Q77.58-7.78 75.61-7.83L75.61-7.83Q72.89-7.69 72.80-4.36L72.80-4.36Q72.80-0.80 75.66-0.80L75.66-0.80Q77.63-0.84 78.09-3.19L78.09-3.19L79.22-3.19Q78.70 0.05 75.42 0.14L75.42 0.14Q71.67 0 71.58-4.31L71.58-4.31Q71.77-8.63 75.61-8.81L75.61-8.81Q78.66-8.72 79.13-6.05ZM81.75-5.06L86.25-5.06L86.25-8.58L87.42-8.58L87.42 0L86.25 0L86.25-3.98L81.75-3.98L81.75 0L80.58 0L80.58-8.58L81.75-8.58L81.75-5.06ZM90.52-1.03L95.67-1.03L95.67 0L89.34 0L89.34-8.58L95.58-8.58L95.58-7.59L90.52-7.59L90.52-4.92L95.20-4.92L95.20-3.89L90.52-3.89L90.52-1.03ZM98.58-8.58L102.89-1.64L102.89-8.58L104.02-8.58L104.02 0L102.70 0L98.34-6.94L98.30-6.94L98.30 0L97.17 0L97.17-8.58L98.58-8.58ZM112.97-6.05L112.97-6.05L111.84-6.05Q111.42-7.78 109.45-7.83L109.45-7.83Q106.73-7.69 106.64-4.36L106.64-4.36Q106.64-0.80 109.50-0.80L109.50-0.80Q111.47-0.84 111.94-3.19L111.94-3.19L113.06-3.19Q112.55 0.05 109.27 0.14L109.27 0.14Q105.52 0 105.42-4.31L105.42-4.31Q105.61-8.63 109.45-8.81L109.45-8.81Q112.50-8.72 112.97-6.05ZM115.59-5.06L120.09-5.06L120.09-8.58L121.27-8.58L121.27 0L120.09 0L120.09-3.98L115.59-3.98L115.59 0L114.42 0L114.42-8.58L115.59-8.58L115.59-5.06ZM124.36-1.03L129.52-1.03L129.52 0L123.19 0L123.19-8.58L129.42-8.58L129.42-7.59L124.36-7.59L124.36-4.92L129.05-4.92L129.05-3.89L124.36-3.89L124.36-1.03ZM132.42-8.58L136.73-1.64L136.73-8.58L137.86-8.58L137.86 0L136.55 0L132.19-6.94L132.14-6.94L132.14 0L131.02 0L131.02-8.58L132.42-8.58ZM146.06-3.61L143.44-3.61L143.44-4.59L147.19-4.59L147.19 0L146.44 0L146.16-1.08Q145.17 0.09 143.34 0.14L143.34 0.14Q141.61 0.14 140.67-0.75L140.67-0.75Q139.27-2.06 139.31-4.36L139.31-4.36Q139.64-8.63 143.39-8.81L143.39-8.81Q146.58-8.63 147.05-6L147.05-6L145.92-6Q145.45-7.78 143.34-7.83L143.34-7.83Q140.67-7.64 140.53-4.31L140.53-4.31Q140.53-0.75 143.39-0.75L143.39-0.75Q144.42-0.75 145.17-1.31L145.17-1.31Q146.11-2.06 146.06-3.61L146.06-3.61Z" transform="translate(-0.515625, 8.8125)"></path></g></g></g></g></g><defs v-gra="od"></defs></svg>